<?xml version="1.0" encoding="utf-8" standalone="no"?>
<!DOCTYPE svg PUBLIC "-//W3C//DTD SVG 1.1//EN"
  "http://www.w3.org/Graphics/SVG/1.1/DTD/svg11.dtd">
<svg xmlns:xlink="http://www.w3.org/1999/xlink" width="460.8pt" height="345.6pt" viewBox="0 0 460.8 345.6" xmlns="http://www.w3.org/2000/svg" version="1.1">
 <metadata>
  <rdf:RDF xmlns:dc="http://purl.org/dc/elements/1.1/" xmlns:cc="http://creativecommons.org/ns#" xmlns:rdf="http://www.w3.org/1999/02/22-rdf-syntax-ns#">
   <cc:Work>
    <dc:type rdf:resource="http://purl.org/dc/dcmitype/StillImage"/>
    <dc:date>2024-06-27T17:58:32.298452</dc:date>
    <dc:format>image/svg+xml</dc:format>
    <dc:creator>
     <cc:Agent>
      <dc:title>Matplotlib v3.9.0, https://matplotlib.org/</dc:title>
     </cc:Agent>
    </dc:creator>
   </cc:Work>
  </rdf:RDF>
 </metadata>
 <defs>
  <style type="text/css">*{stroke-linejoin: round; stroke-linecap: butt}</style>
 </defs>
 <g id="figure_1">
  <g id="patch_1">
   <path d="M 0 345.6 
L 460.8 345.6 
L 460.8 0 
L 0 0 
z
" style="fill: #ffffff"/>
  </g>
  <g id="axes_1">
   <g id="patch_2">
    <path d="M 57.6 307.584 
L 414.72 307.584 
L 414.72 41.472 
L 57.6 41.472 
z
" style="fill: #ffffff"/>
   </g>
   <g id="matplotlib.axis_1">
    <g id="xtick_1">
     <g id="line2d_1">
      <defs>
       <path id="mc4c7f2d783" d="M 0 0 
L 0 3.5 
" style="stroke: #000000; stroke-width: 0.8"/>
      </defs>
      <g>
       <use xlink:href="#mc4c7f2d783" x="73.832727" y="307.584" style="stroke: #000000; stroke-width: 0.8"/>
      </g>
     </g>
     <g id="text_1">
      <!-- 0 -->
      <g transform="translate(70.651477 322.182437) scale(0.1 -0.1)">
       <defs>
        <path id="DejaVuSans-30" d="M 2034 4250 
Q 1547 4250 1301 3770 
Q 1056 3291 1056 2328 
Q 1056 1369 1301 889 
Q 1547 409 2034 409 
Q 2525 409 2770 889 
Q 3016 1369 3016 2328 
Q 3016 3291 2770 3770 
Q 2525 4250 2034 4250 
z
M 2034 4750 
Q 2819 4750 3233 4129 
Q 3647 3509 3647 2328 
Q 3647 1150 3233 529 
Q 2819 -91 2034 -91 
Q 1250 -91 836 529 
Q 422 1150 422 2328 
Q 422 3509 836 4129 
Q 1250 4750 2034 4750 
z
" transform="scale(0.015625)"/>
       </defs>
       <use xlink:href="#DejaVuSans-30"/>
      </g>
     </g>
    </g>
    <g id="xtick_2">
     <g id="line2d_2">
      <g>
       <use xlink:href="#mc4c7f2d783" x="138.893758" y="307.584" style="stroke: #000000; stroke-width: 0.8"/>
      </g>
     </g>
     <g id="text_2">
      <!-- 100 -->
      <g transform="translate(129.350008 322.182437) scale(0.1 -0.1)">
       <defs>
        <path id="DejaVuSans-31" d="M 794 531 
L 1825 531 
L 1825 4091 
L 703 3866 
L 703 4441 
L 1819 4666 
L 2450 4666 
L 2450 531 
L 3481 531 
L 3481 0 
L 794 0 
L 794 531 
z
" transform="scale(0.015625)"/>
       </defs>
       <use xlink:href="#DejaVuSans-31"/>
       <use xlink:href="#DejaVuSans-30" x="63.623047"/>
       <use xlink:href="#DejaVuSans-30" x="127.246094"/>
      </g>
     </g>
    </g>
    <g id="xtick_3">
     <g id="line2d_3">
      <g>
       <use xlink:href="#mc4c7f2d783" x="203.95479" y="307.584" style="stroke: #000000; stroke-width: 0.8"/>
      </g>
     </g>
     <g id="text_3">
      <!-- 200 -->
      <g transform="translate(194.41104 322.182437) scale(0.1 -0.1)">
       <defs>
        <path id="DejaVuSans-32" d="M 1228 531 
L 3431 531 
L 3431 0 
L 469 0 
L 469 531 
Q 828 903 1448 1529 
Q 2069 2156 2228 2338 
Q 2531 2678 2651 2914 
Q 2772 3150 2772 3378 
Q 2772 3750 2511 3984 
Q 2250 4219 1831 4219 
Q 1534 4219 1204 4116 
Q 875 4013 500 3803 
L 500 4441 
Q 881 4594 1212 4672 
Q 1544 4750 1819 4750 
Q 2544 4750 2975 4387 
Q 3406 4025 3406 3419 
Q 3406 3131 3298 2873 
Q 3191 2616 2906 2266 
Q 2828 2175 2409 1742 
Q 1991 1309 1228 531 
z
" transform="scale(0.015625)"/>
       </defs>
       <use xlink:href="#DejaVuSans-32"/>
       <use xlink:href="#DejaVuSans-30" x="63.623047"/>
       <use xlink:href="#DejaVuSans-30" x="127.246094"/>
      </g>
     </g>
    </g>
    <g id="xtick_4">
     <g id="line2d_4">
      <g>
       <use xlink:href="#mc4c7f2d783" x="269.015821" y="307.584" style="stroke: #000000; stroke-width: 0.8"/>
      </g>
     </g>
     <g id="text_4">
      <!-- 300 -->
      <g transform="translate(259.472071 322.182437) scale(0.1 -0.1)">
       <defs>
        <path id="DejaVuSans-33" d="M 2597 2516 
Q 3050 2419 3304 2112 
Q 3559 1806 3559 1356 
Q 3559 666 3084 287 
Q 2609 -91 1734 -91 
Q 1441 -91 1130 -33 
Q 819 25 488 141 
L 488 750 
Q 750 597 1062 519 
Q 1375 441 1716 441 
Q 2309 441 2620 675 
Q 2931 909 2931 1356 
Q 2931 1769 2642 2001 
Q 2353 2234 1838 2234 
L 1294 2234 
L 1294 2753 
L 1863 2753 
Q 2328 2753 2575 2939 
Q 2822 3125 2822 3475 
Q 2822 3834 2567 4026 
Q 2313 4219 1838 4219 
Q 1578 4219 1281 4162 
Q 984 4106 628 3988 
L 628 4550 
Q 988 4650 1302 4700 
Q 1616 4750 1894 4750 
Q 2613 4750 3031 4423 
Q 3450 4097 3450 3541 
Q 3450 3153 3228 2886 
Q 3006 2619 2597 2516 
z
" transform="scale(0.015625)"/>
       </defs>
       <use xlink:href="#DejaVuSans-33"/>
       <use xlink:href="#DejaVuSans-30" x="63.623047"/>
       <use xlink:href="#DejaVuSans-30" x="127.246094"/>
      </g>
     </g>
    </g>
    <g id="xtick_5">
     <g id="line2d_5">
      <g>
       <use xlink:href="#mc4c7f2d783" x="334.076852" y="307.584" style="stroke: #000000; stroke-width: 0.8"/>
      </g>
     </g>
     <g id="text_5">
      <!-- 400 -->
      <g transform="translate(324.533102 322.182437) scale(0.1 -0.1)">
       <defs>
        <path id="DejaVuSans-34" d="M 2419 4116 
L 825 1625 
L 2419 1625 
L 2419 4116 
z
M 2253 4666 
L 3047 4666 
L 3047 1625 
L 3713 1625 
L 3713 1100 
L 3047 1100 
L 3047 0 
L 2419 0 
L 2419 1100 
L 313 1100 
L 313 1709 
L 2253 4666 
z
" transform="scale(0.015625)"/>
       </defs>
       <use xlink:href="#DejaVuSans-34"/>
       <use xlink:href="#DejaVuSans-30" x="63.623047"/>
       <use xlink:href="#DejaVuSans-30" x="127.246094"/>
      </g>
     </g>
    </g>
    <g id="xtick_6">
     <g id="line2d_6">
      <g>
       <use xlink:href="#mc4c7f2d783" x="399.137883" y="307.584" style="stroke: #000000; stroke-width: 0.8"/>
      </g>
     </g>
     <g id="text_6">
      <!-- 500 -->
      <g transform="translate(389.594133 322.182437) scale(0.1 -0.1)">
       <defs>
        <path id="DejaVuSans-35" d="M 691 4666 
L 3169 4666 
L 3169 4134 
L 1269 4134 
L 1269 2991 
Q 1406 3038 1543 3061 
Q 1681 3084 1819 3084 
Q 2600 3084 3056 2656 
Q 3513 2228 3513 1497 
Q 3513 744 3044 326 
Q 2575 -91 1722 -91 
Q 1428 -91 1123 -41 
Q 819 9 494 109 
L 494 744 
Q 775 591 1075 516 
Q 1375 441 1709 441 
Q 2250 441 2565 725 
Q 2881 1009 2881 1497 
Q 2881 1984 2565 2268 
Q 2250 2553 1709 2553 
Q 1456 2553 1204 2497 
Q 953 2441 691 2322 
L 691 4666 
z
" transform="scale(0.015625)"/>
       </defs>
       <use xlink:href="#DejaVuSans-35"/>
       <use xlink:href="#DejaVuSans-30" x="63.623047"/>
       <use xlink:href="#DejaVuSans-30" x="127.246094"/>
      </g>
     </g>
    </g>
   </g>
   <g id="matplotlib.axis_2">
    <g id="ytick_1">
     <g id="line2d_7">
      <defs>
       <path id="me02dbcd662" d="M 0 0 
L -3.5 0 
" style="stroke: #000000; stroke-width: 0.8"/>
      </defs>
      <g>
       <use xlink:href="#me02dbcd662" x="57.6" y="295.488" style="stroke: #000000; stroke-width: 0.8"/>
      </g>
     </g>
     <g id="text_7">
      <!-- −1000 -->
      <g transform="translate(16.770313 299.287219) scale(0.1 -0.1)">
       <defs>
        <path id="DejaVuSans-2212" d="M 678 2272 
L 4684 2272 
L 4684 1741 
L 678 1741 
L 678 2272 
z
" transform="scale(0.015625)"/>
       </defs>
       <use xlink:href="#DejaVuSans-2212"/>
       <use xlink:href="#DejaVuSans-31" x="83.789062"/>
       <use xlink:href="#DejaVuSans-30" x="147.412109"/>
       <use xlink:href="#DejaVuSans-30" x="211.035156"/>
       <use xlink:href="#DejaVuSans-30" x="274.658203"/>
      </g>
     </g>
    </g>
    <g id="ytick_2">
     <g id="line2d_8">
      <g>
       <use xlink:href="#me02dbcd662" x="57.6" y="247.649787" style="stroke: #000000; stroke-width: 0.8"/>
      </g>
     </g>
     <g id="text_8">
      <!-- −800 -->
      <g transform="translate(23.132812 251.449005) scale(0.1 -0.1)">
       <defs>
        <path id="DejaVuSans-38" d="M 2034 2216 
Q 1584 2216 1326 1975 
Q 1069 1734 1069 1313 
Q 1069 891 1326 650 
Q 1584 409 2034 409 
Q 2484 409 2743 651 
Q 3003 894 3003 1313 
Q 3003 1734 2745 1975 
Q 2488 2216 2034 2216 
z
M 1403 2484 
Q 997 2584 770 2862 
Q 544 3141 544 3541 
Q 544 4100 942 4425 
Q 1341 4750 2034 4750 
Q 2731 4750 3128 4425 
Q 3525 4100 3525 3541 
Q 3525 3141 3298 2862 
Q 3072 2584 2669 2484 
Q 3125 2378 3379 2068 
Q 3634 1759 3634 1313 
Q 3634 634 3220 271 
Q 2806 -91 2034 -91 
Q 1263 -91 848 271 
Q 434 634 434 1313 
Q 434 1759 690 2068 
Q 947 2378 1403 2484 
z
M 1172 3481 
Q 1172 3119 1398 2916 
Q 1625 2713 2034 2713 
Q 2441 2713 2670 2916 
Q 2900 3119 2900 3481 
Q 2900 3844 2670 4047 
Q 2441 4250 2034 4250 
Q 1625 4250 1398 4047 
Q 1172 3844 1172 3481 
z
" transform="scale(0.015625)"/>
       </defs>
       <use xlink:href="#DejaVuSans-2212"/>
       <use xlink:href="#DejaVuSans-38" x="83.789062"/>
       <use xlink:href="#DejaVuSans-30" x="147.412109"/>
       <use xlink:href="#DejaVuSans-30" x="211.035156"/>
      </g>
     </g>
    </g>
    <g id="ytick_3">
     <g id="line2d_9">
      <g>
       <use xlink:href="#me02dbcd662" x="57.6" y="199.811573" style="stroke: #000000; stroke-width: 0.8"/>
      </g>
     </g>
     <g id="text_9">
      <!-- −600 -->
      <g transform="translate(23.132812 203.610792) scale(0.1 -0.1)">
       <defs>
        <path id="DejaVuSans-36" d="M 2113 2584 
Q 1688 2584 1439 2293 
Q 1191 2003 1191 1497 
Q 1191 994 1439 701 
Q 1688 409 2113 409 
Q 2538 409 2786 701 
Q 3034 994 3034 1497 
Q 3034 2003 2786 2293 
Q 2538 2584 2113 2584 
z
M 3366 4563 
L 3366 3988 
Q 3128 4100 2886 4159 
Q 2644 4219 2406 4219 
Q 1781 4219 1451 3797 
Q 1122 3375 1075 2522 
Q 1259 2794 1537 2939 
Q 1816 3084 2150 3084 
Q 2853 3084 3261 2657 
Q 3669 2231 3669 1497 
Q 3669 778 3244 343 
Q 2819 -91 2113 -91 
Q 1303 -91 875 529 
Q 447 1150 447 2328 
Q 447 3434 972 4092 
Q 1497 4750 2381 4750 
Q 2619 4750 2861 4703 
Q 3103 4656 3366 4563 
z
" transform="scale(0.015625)"/>
       </defs>
       <use xlink:href="#DejaVuSans-2212"/>
       <use xlink:href="#DejaVuSans-36" x="83.789062"/>
       <use xlink:href="#DejaVuSans-30" x="147.412109"/>
       <use xlink:href="#DejaVuSans-30" x="211.035156"/>
      </g>
     </g>
    </g>
    <g id="ytick_4">
     <g id="line2d_10">
      <g>
       <use xlink:href="#me02dbcd662" x="57.6" y="151.97336" style="stroke: #000000; stroke-width: 0.8"/>
      </g>
     </g>
     <g id="text_10">
      <!-- −400 -->
      <g transform="translate(23.132812 155.772579) scale(0.1 -0.1)">
       <use xlink:href="#DejaVuSans-2212"/>
       <use xlink:href="#DejaVuSans-34" x="83.789062"/>
       <use xlink:href="#DejaVuSans-30" x="147.412109"/>
       <use xlink:href="#DejaVuSans-30" x="211.035156"/>
      </g>
     </g>
    </g>
    <g id="ytick_5">
     <g id="line2d_11">
      <g>
       <use xlink:href="#me02dbcd662" x="57.6" y="104.135147" style="stroke: #000000; stroke-width: 0.8"/>
      </g>
     </g>
     <g id="text_11">
      <!-- −200 -->
      <g transform="translate(23.132812 107.934365) scale(0.1 -0.1)">
       <use xlink:href="#DejaVuSans-2212"/>
       <use xlink:href="#DejaVuSans-32" x="83.789062"/>
       <use xlink:href="#DejaVuSans-30" x="147.412109"/>
       <use xlink:href="#DejaVuSans-30" x="211.035156"/>
      </g>
     </g>
    </g>
    <g id="ytick_6">
     <g id="line2d_12">
      <g>
       <use xlink:href="#me02dbcd662" x="57.6" y="56.296933" style="stroke: #000000; stroke-width: 0.8"/>
      </g>
     </g>
     <g id="text_12">
      <!-- 0 -->
      <g transform="translate(44.2375 60.096152) scale(0.1 -0.1)">
       <use xlink:href="#DejaVuSans-30"/>
      </g>
     </g>
    </g>
   </g>
   <g id="line2d_13">
    <path d="M 73.832727 58.716401 
L 74.483338 58.671918 
L 75.133948 59.661788 
L 75.784558 59.848363 
L 77.736389 59.742719 
L 80.989441 59.856992 
L 81.640051 59.681332 
L 82.941272 58.462865 
L 83.591882 59.638519 
L 84.242492 59.895019 
L 89.447375 59.816961 
L 90.097985 59.650917 
L 90.748595 58.694077 
L 92.049816 59.80279 
L 92.700426 59.762069 
L 95.953478 58.627794 
L 97.254698 57.809915 
L 97.905309 57.216121 
L 98.555919 56.211715 
L 99.206529 53.775968 
L 99.85714 55.951772 
L 101.808971 58.598941 
L 104.411412 59.417094 
L 105.712633 59.576089 
L 106.363243 58.755233 
L 107.013853 58.482318 
L 108.315074 59.524853 
L 109.616294 59.603621 
L 110.917515 59.732782 
L 114.170567 59.847411 
L 114.821177 59.662599 
L 115.471787 58.718025 
L 116.122398 58.891548 
L 116.773008 59.676225 
L 117.423618 59.851048 
L 119.375449 59.631474 
L 121.97789 59.66986 
L 122.628501 59.57408 
L 123.279111 59.360136 
L 123.929721 58.542203 
L 124.580332 59.097167 
L 125.230942 59.460315 
L 125.881552 59.597695 
L 127.182773 59.459953 
L 129.785214 58.430953 
L 131.086435 56.728904 
L 131.737045 56.184369 
L 132.387655 53.742829 
L 133.688876 56.368391 
L 134.990097 58.388806 
L 136.291317 59.265371 
L 137.592538 59.514788 
L 138.893758 59.730748 
L 139.544369 59.597134 
L 140.194979 58.712757 
L 140.845589 58.663605 
L 141.4962 59.536177 
L 142.14681 59.72433 
L 143.448031 59.769819 
L 146.050472 59.774832 
L 147.351692 59.855064 
L 148.002303 59.834531 
L 148.652913 59.663751 
L 149.303523 58.564636 
L 149.954134 59.568853 
L 150.604744 59.797749 
L 154.508406 59.689789 
L 155.809627 59.769837 
L 156.460237 59.625611 
L 157.110847 58.910892 
L 157.761457 58.72825 
L 158.412068 59.475183 
L 159.062678 59.68095 
L 159.713288 59.701238 
L 161.014509 59.467022 
L 161.665119 59.263352 
L 162.96634 58.662992 
L 164.267561 57.477202 
L 165.568781 56.168315 
L 166.219392 53.726109 
L 166.870002 55.898551 
L 168.171222 57.8427 
L 168.821833 58.431921 
L 170.773664 59.351271 
L 172.725495 59.549411 
L 173.376105 59.509678 
L 174.026715 58.716043 
L 174.677326 58.688192 
L 175.327936 59.494337 
L 175.978546 59.752265 
L 177.279767 59.754274 
L 179.231598 59.788307 
L 181.183429 59.85092 
L 181.834039 59.784193 
L 182.484649 59.591665 
L 183.13526 58.598747 
L 184.43648 59.627824 
L 187.038921 59.769681 
L 188.340142 59.643501 
L 190.291973 59.7504 
L 190.942583 59.047393 
L 191.593194 58.727793 
L 192.243804 59.501419 
L 192.894414 59.590427 
L 194.195635 59.463882 
L 195.496856 58.963676 
L 196.147466 58.674763 
L 196.798076 58.611409 
L 197.448686 58.402909 
L 198.099297 57.772412 
L 199.400517 56.194425 
L 200.051128 53.785179 
L 200.701738 54.724637 
L 201.352348 56.475922 
L 202.002959 57.438663 
L 202.653569 57.994005 
L 203.95479 58.57314 
L 204.6054 59.084593 
L 205.25601 59.389048 
L 206.557231 59.476617 
L 207.858451 59.329556 
L 208.509062 58.987589 
L 209.159672 58.881315 
L 209.810282 59.428165 
L 211.111503 59.684583 
L 215.665775 59.660344 
L 216.966996 59.432918 
L 217.617606 58.647374 
L 218.268216 59.154043 
L 218.918827 59.4386 
L 220.870658 59.379307 
L 222.171878 59.620326 
L 224.77432 59.451116 
L 226.72615 59.157624 
L 228.027371 59.464109 
L 228.677981 295.488 
L 231.931033 295.488 
L 232.581643 58.402207 
L 233.232254 58.07766 
L 234.533474 56.906007 
L 235.184085 56.150484 
L 235.834695 53.917706 
L 237.135915 56.642519 
L 237.786526 57.594985 
L 240.388967 59.069582 
L 241.690188 59.432581 
L 242.991408 59.539392 
L 243.642019 59.02461 
L 244.292629 58.805026 
L 245.59385 59.358679 
L 249.497511 59.457075 
L 252.099953 59.643178 
L 252.750563 59.519744 
L 253.401173 58.683435 
L 254.051784 59.422908 
L 258.606056 59.540963 
L 260.557887 59.542343 
L 261.208497 59.031419 
L 261.859107 58.987056 
L 262.509718 59.319997 
L 263.810938 59.55211 
L 265.112159 59.448961 
L 266.413379 59.011644 
L 267.06399 58.69518 
L 267.7146 58.533874 
L 268.36521 58.168147 
L 269.666431 56.727018 
L 270.317041 56.099556 
L 270.967652 53.796876 
L 271.618262 55.845388 
L 272.268872 57.053776 
L 272.919483 57.801191 
L 274.220703 58.607404 
L 274.871314 58.942552 
L 275.521924 59.076229 
L 276.823144 59.512783 
L 277.473755 59.594381 
L 278.124365 59.526907 
L 278.774975 59.306637 
L 279.425586 58.766443 
L 280.076196 59.378358 
L 280.726806 59.781825 
L 283.979858 59.657594 
L 285.281079 59.631442 
L 286.582299 59.755013 
L 287.232909 59.741464 
L 287.88352 59.503327 
L 288.53413 58.55061 
L 289.18474 59.527929 
L 290.485961 59.667135 
L 291.787182 59.560199 
L 295.690844 59.689723 
L 296.341454 59.576248 
L 296.992064 58.761882 
L 297.642674 58.897385 
L 298.293285 59.637488 
L 298.943895 59.758524 
L 301.546336 59.336351 
L 302.196947 58.96783 
L 302.847557 58.790191 
L 303.498167 58.292826 
L 304.799388 56.508954 
L 305.449998 53.880173 
L 306.100608 54.025921 
L 306.751219 56.220023 
L 308.052439 57.94042 
L 309.35366 58.969973 
L 310.00427 59.24477 
L 311.956101 59.613491 
L 312.606712 59.762297 
L 313.257322 59.683539 
L 313.907932 59.371927 
L 314.558543 58.541729 
L 315.209153 59.240512 
L 316.510373 59.792675 
L 317.811594 59.616174 
L 320.414035 59.784077 
L 321.064646 59.785485 
L 322.365866 59.553527 
L 323.667087 58.489126 
L 324.317697 59.543784 
L 324.968308 59.700919 
L 326.920138 59.621515 
L 328.871969 59.585739 
L 330.17319 59.609535 
L 330.8238 59.483826 
L 331.474411 59.196782 
L 332.125021 58.64051 
L 333.426242 59.458905 
L 334.076852 59.620178 
L 334.727462 59.656841 
L 336.679293 59.182652 
L 337.329903 58.841784 
L 337.980514 58.62859 
L 338.631124 58.009916 
L 339.932345 56.048309 
L 340.582955 53.571041 
L 341.233565 54.001679 
L 341.884176 56.411563 
L 342.534786 57.522529 
L 343.836007 58.491321 
L 345.137227 59.299691 
L 345.787837 59.501874 
L 347.089058 59.646616 
L 347.739668 59.518955 
L 348.390279 59.262672 
L 349.691499 58.476703 
L 350.34211 59.176819 
L 350.99272 59.59027 
L 351.64333 59.709505 
L 354.896382 59.762718 
L 356.197602 59.850679 
L 357.498823 59.44865 
L 358.149433 58.527105 
L 358.800044 59.363697 
L 359.450654 59.725814 
L 360.101264 59.796203 
L 363.354316 59.595777 
L 364.655537 59.756281 
L 365.306147 59.643492 
L 365.956757 59.403299 
L 366.607367 58.640102 
L 368.559198 59.766232 
L 369.209809 59.844384 
L 370.511029 59.577197 
L 371.81225 58.958165 
L 372.46286 58.7587 
L 373.113471 58.062932 
L 373.764081 56.897948 
L 374.414691 56.19117 
L 375.065302 53.593651 
L 375.715912 53.568 
L 376.366522 56.110128 
L 377.017132 57.601024 
L 377.667743 58.561604 
L 378.968963 59.447246 
L 380.920794 59.834127 
L 381.571405 59.811576 
L 382.872625 59.29235 
L 383.523236 58.590819 
L 384.173846 58.62297 
L 384.824456 59.401092 
L 385.475066 59.735451 
L 386.776287 59.726585 
L 388.728118 59.723129 
L 390.029339 59.827118 
L 390.679949 59.738516 
L 391.330559 59.493347 
L 391.98117 58.656716 
L 392.63178 58.516886 
L 393.28239 59.333889 
L 393.933001 59.662342 
L 395.234221 59.647593 
L 396.535442 59.63816 
L 398.487273 59.608911 
L 398.487273 59.608911 
" clip-path="url(#p13d9384379)" style="fill: none; stroke: #1f77b4; stroke-width: 1.5; stroke-linecap: square"/>
   </g>
   <g id="patch_3">
    <path d="M 57.6 307.584 
L 57.6 41.472 
" style="fill: none; stroke: #000000; stroke-width: 0.8; stroke-linejoin: miter; stroke-linecap: square"/>
   </g>
   <g id="patch_4">
    <path d="M 414.72 307.584 
L 414.72 41.472 
" style="fill: none; stroke: #000000; stroke-width: 0.8; stroke-linejoin: miter; stroke-linecap: square"/>
   </g>
   <g id="patch_5">
    <path d="M 57.6 307.584 
L 414.72 307.584 
" style="fill: none; stroke: #000000; stroke-width: 0.8; stroke-linejoin: miter; stroke-linecap: square"/>
   </g>
   <g id="patch_6">
    <path d="M 57.6 41.472 
L 414.72 41.472 
" style="fill: none; stroke: #000000; stroke-width: 0.8; stroke-linejoin: miter; stroke-linecap: square"/>
   </g>
  </g>
 </g>
 <defs>
  <clipPath id="p13d9384379">
   <rect x="57.6" y="41.472" width="357.12" height="266.112"/>
  </clipPath>
 </defs>
</svg>
